<?xml version="1.0" encoding="UTF-8" standalone="no"?>
<!-- Created with Inkscape (http://www.inkscape.org/) -->

<svg
   xmlns:osb="http://www.openswatchbook.org/uri/2009/osb"
   xmlns:dc="http://purl.org/dc/elements/1.1/"
   xmlns:cc="http://creativecommons.org/ns#"
   xmlns:rdf="http://www.w3.org/1999/02/22-rdf-syntax-ns#"
   xmlns:svg="http://www.w3.org/2000/svg"
   xmlns="http://www.w3.org/2000/svg"
   xmlns:xlink="http://www.w3.org/1999/xlink"
   xmlns:sodipodi="http://sodipodi.sourceforge.net/DTD/sodipodi-0.dtd"
   xmlns:inkscape="http://www.inkscape.org/namespaces/inkscape"
   width="744.09448819"
   height="1052.3622047"
   id="svg2"
   version="1.1"
   inkscape:version="0.48.2 r9819"
   sodipodi:docname="ui.svg">
  <defs
     id="defs4">
    <linearGradient
       id="linearGradient3786">
      <stop
         id="stop3788"
         offset="0"
         style="stop-color:#ffff85;stop-opacity:1;" />
      <stop
         style="stop-color:#ffffff;stop-opacity:0.29914531;"
         offset="1"
         id="stop3792" />
    </linearGradient>
    <linearGradient
       id="linearGradient3757"
       osb:paint="solid">
      <stop
         style="stop-color:#ffffff;stop-opacity:1;"
         offset="0"
         id="stop3759" />
    </linearGradient>
    <radialGradient
       inkscape:collect="always"
       xlink:href="#linearGradient3786"
       id="radialGradient3784"
       cx="1149.6051"
       cy="462.36514"
       fx="1149.6051"
       fy="462.36514"
       r="414.92188"
       gradientTransform="translate(-239.1518,54.640083)"
       gradientUnits="userSpaceOnUse" />
  </defs>
  <sodipodi:namedview
     id="base"
     pagecolor="#ffffff"
     bordercolor="#666666"
     borderopacity="1.0"
     inkscape:pageopacity="0.0"
     inkscape:pageshadow="2"
     inkscape:zoom="0.31112698"
     inkscape:cx="287.63859"
     inkscape:cy="613.6765"
     inkscape:document-units="px"
     inkscape:current-layer="layer1"
     showgrid="false"
     inkscape:window-width="1237"
     inkscape:window-height="756"
     inkscape:window-x="43"
     inkscape:window-y="0"
     inkscape:window-maximized="1" />
  <metadata
     id="metadata7">
    <rdf:RDF>
      <cc:Work
         rdf:about="">
        <dc:format>image/svg+xml</dc:format>
        <dc:type
           rdf:resource="http://purl.org/dc/dcmitype/StillImage" />
        <dc:title></dc:title>
      </cc:Work>
    </rdf:RDF>
  </metadata>
  <g
     inkscape:label="Layer 1"
     inkscape:groupmode="layer"
     id="layer1">
    <path
       style="fill:#ffffff;fill-opacity:0.12077295000000000;stroke:#ffffff;stroke-width:27;stroke-miterlimit:4;stroke-opacity:0.09661835;stroke-dasharray:none"
       d="m -280.81231,115.58335 c -22.15999,0 -40,17.84 -40,40 l 0,722.84375 c 0,22.16 17.84001,40 40,40 l 722.84374,0 c 22.15999,0 40,-17.84 40,-40 l 0,-722.84375 c 0,-22.16 -17.84001,-40 -40,-40 l -722.84374,0 z m 378.499995,112.375 0,169.6875 270.906245,0 0,242.34375 -270.906245,0 0,169.6875 -322.218745,-290.84375 322.218745,-290.875 z"
       id="rect3755"
       inkscape:connector-curvature="0"
       inkscape:export-filename="/Users/jgoodman/dev/navigator/src/assets/images/ui.png"
       inkscape:export-xdpi="3.4705329"
       inkscape:export-ydpi="3.4705329" />
    <path
       inkscape:connector-curvature="0"
       id="path3776"
       d="m 549.03143,115.58334 c -22.15998,0 -40,17.84 -40,40.00001 l 0,722.84375 c 0,22.16 17.84002,40 40,40 l 722.84367,0 c 22.1601,0 40,-17.84 40,-40 l 0,-722.84375 c 0,-22.16001 -17.8399,-40.00001 -40,-40.00001 l -722.84367,0 z m 378.49997,112.37501 0,169.6875 270.9062,0 0,242.34375 -270.9062,0 0,169.6875 -322.21872,-290.84375 322.21872,-290.875 z"
       style="fill:url(#radialGradient3784);fill-opacity:1;stroke:#ffffff;stroke-width:27;stroke-miterlimit:4;stroke-opacity:0.51555559;stroke-dasharray:none"
       inkscape:export-filename="/Users/jgoodman/dev/navigator/src/assets/images/ui.png"
       inkscape:export-xdpi="3.4705329"
       inkscape:export-ydpi="3.4705329" />
  </g>
</svg>
